<svg width="14" height="21" viewBox="0 0 14 21" fill="none" xmlns="http://www.w3.org/2000/svg">
<path d="M6.75 0C3.03223 0 0 3.03223 0 6.75C0 7.80469 0.427735 9.01465 1.00781 10.3359C1.58789 11.6572 2.33496 13.0605 3.09375 14.3672C4.61133 16.9834 6.14062 19.1719 6.14062 19.1719L6.75 20.0625L7.35938 19.1719C7.35938 19.1719 8.88867 16.9834 10.4062 14.3672C11.165 13.0605 11.9121 11.6572 12.4922 10.3359C13.0723 9.01465 13.5 7.80469 13.5 6.75C13.5 3.03223 10.4678 0 6.75 0ZM6.75 1.5C9.65918 1.5 12 3.84082 12 6.75C12 7.35059 11.6777 8.4873 11.1328 9.72656C10.5879 10.9658 9.83496 12.3398 9.09375 13.6172C7.91602 15.6504 7.18359 16.7256 6.75 17.3672C6.31641 16.7256 5.58398 15.6504 4.40625 13.6172C3.66504 12.3398 2.91211 10.9658 2.36719 9.72656C1.82227 8.4873 1.5 7.35059 1.5 6.75C1.5 3.84082 3.84082 1.5 6.75 1.5ZM6.75 5.25C5.9209 5.25 5.25 5.9209 5.25 6.75C5.25 7.5791 5.9209 8.25 6.75 8.25C7.5791 8.25 8.25 7.5791 8.25 6.75C8.25 5.9209 7.5791 5.25 6.75 5.25Z" fill="#FF6B00"/>
</svg>
