<svg width="20" height="20" viewBox="0 0 20 20" fill="none" xmlns="http://www.w3.org/2000/svg">
<path d="M14.809 0.0096731C14.5687 0.0331106 14.3226 0.0975641 14.0824 0.197173V0.173736C14.0707 0.176665 14.0472 0.194244 14.0355 0.197173C12.2103 0.838775 8.71521 2.44717 5.55114 5.61124C2.36364 8.79874 0.825557 12.3583 0.137081 14.119V14.1425C-0.167607 15.0536 0.0491903 16.0409 0.652706 16.744L0.676143 16.7675V16.7909L2.92614 19.0175L3.01989 19.1112C3.64099 19.7323 4.71911 19.7323 5.34021 19.1112L8.41052 16.0409C9.03161 15.4198 9.03161 14.3183 8.41052 13.6972L6.93396 12.2206C7.19177 11.6845 7.85974 10.3661 9.04333 9.12686C10.2181 7.89639 11.5658 7.26944 12.0902 7.04092L13.6371 8.5878L13.7074 8.63467C14.059 8.86905 14.4603 9.00089 14.8793 8.98624C15.2718 8.97159 15.6791 8.77823 15.9808 8.44717L16.0043 8.47061L16.0511 8.4003L19.0746 5.4003C19.6957 4.7792 19.6957 3.67764 19.0746 3.05655L16.7543 0.736236C16.4261 0.408111 15.9838 0.162017 15.5121 0.0565481C15.2836 0.0067436 15.0492 -0.0137644 14.809 0.0096731ZM14.9261 1.50967C15.2103 1.48917 15.4945 1.60928 15.6761 1.79092L18.0199 4.11124C18.1488 4.24014 18.1488 4.19327 18.0199 4.32217L14.8793 7.4628C14.8822 7.45987 14.8793 7.48331 14.809 7.48624C14.7504 7.48917 14.6625 7.43936 14.5746 7.39249H14.5277L12.7699 5.61124L12.4183 5.25967L11.973 5.42374C11.973 5.42374 9.66735 6.28506 7.94177 8.09561C6.24548 9.871 5.31677 12.0565 5.31677 12.0565L5.12927 12.5253L5.48083 12.9003L7.35583 14.7753C7.48474 14.9042 7.48474 14.8573 7.35583 14.9862L4.28552 18.0565C4.15661 18.1855 4.20349 18.1855 4.07458 18.0565L1.77771 15.7831C1.77185 15.7773 1.78357 15.7655 1.77771 15.7597L1.75427 15.7362C1.49353 15.411 1.41442 15.0653 1.54333 14.6581C1.54626 14.6493 1.5404 14.6435 1.54333 14.6347C2.20837 12.9413 3.67321 9.62198 6.62927 6.66592C9.59704 3.69815 12.9633 2.17178 14.598 1.60342L14.6215 1.57999H14.6449C14.7357 1.53897 14.8324 1.51553 14.9261 1.50967Z" fill="#FF6B00"/>
</svg>
